<svg t="1679483222183" class="icon" viewBox="0 0 1024 1024" version="1.1" xmlns="http://www.w3.org/2000/svg" p-id="3089" width="128" height="128"><path d="M512.876203 644.711288a136.507326 136.507326 0 0 0 97.151564-40.256007c50.263744-50.263744 53.354589-130.08557 9.317548-183.995311L881.331952 158.473333c15.049115 12.588442 33.60919 19.775407 53.459618 19.775407 22.401125 0 43.451881-8.717384 59.296214-24.561716s24.561716-36.895089 24.561716-59.296214-8.732388-43.451881-24.561716-59.28121S957.192695 10.547884 934.79157 10.547884c-22.386121 0-43.451881 8.717384-59.28121 24.561716s-24.561716 36.895089-24.561716 59.296214c0 19.850428 7.186965 38.425507 19.775408 53.474622l-261.52151 261.52151a136.432306 136.432306 0 0 0-96.311335-39.490798 136.567343 136.567343 0 0 0-97.166569 40.241003l-0.105029 0.120033L153.227861 147.865432c12.588442-15.049115 19.775407-33.624194 19.775408-53.474622 0-22.401125-8.717384-43.451881-24.561717-59.296214S111.546464 10.547884 89.160343 10.547884c-22.401125 0-43.451881 8.717384-59.296214 24.561716S5.302413 72.004689 5.302413 94.39081s8.717384 43.451881 24.561716 59.296214S66.759217 178.24874 89.160343 178.24874c19.850428 0 38.410503-7.186965 53.459618-19.775407l263.006916 263.006916a136.237252 136.237252 0 0 0-30.158247 85.823467c0 36.324933 14.028836 70.459266 39.490798 96.311335L142.619961 875.969523c-15.049115-12.588442-33.60919-19.775407-53.459618-19.775407-22.401125 0-43.451881 8.717384-59.296214 24.561716S5.302413 917.65092 5.302413 940.052045c0 22.401125 8.717384 43.451881 24.561716 59.296214s36.895089 24.561716 59.296214 24.561716c22.386121 0 43.451881-8.717384 59.281209-24.561716s24.561716-36.895089 24.561717-59.296214c0-19.850428-7.186965-38.425507-19.775408-53.474621l272.789591-272.804595a136.387293 136.387293 0 0 0 86.858751 30.938459zM51.07993 132.471223a53.909741 53.909741 0 0 1 0-76.145822 53.489626 53.489626 0 0 1 38.080413-15.769311c14.37393 0 27.892627 5.59653 38.065408 15.769311a53.909741 53.909741 0 0 1 0 76.145822c-20.330559 20.345563-55.815262 20.330559-76.145821 0z m845.631227-76.145822a53.474622 53.474622 0 0 1 38.065409-15.769311c14.388934 0 27.907631 5.59653 38.080413 15.769311a53.909741 53.909741 0 0 1 0 76.145822c-20.315555 20.330559-55.785254 20.345563-76.145822 0a53.909741 53.909741 0 0 1 0-76.145822zM436.940439 431.352948a106.67917 106.67917 0 0 1 75.950768-31.448599c28.67284 0 55.650217 11.178056 75.935763 31.448599 41.861446 41.876451 41.861446 110.010081 0 151.886532a106.67917 106.67917 0 0 1-75.935763 31.463603 106.724182 106.724182 0 0 1-75.950768-31.463603 106.619154 106.619154 0 0 1-31.463603-75.935764c0-28.687844 11.163052-55.665221 31.463603-75.950768zM127.225751 978.117454c-20.330559 20.345563-55.815262 20.330559-76.145821 0a53.909741 53.909741 0 0 1 0-76.145821 53.489626 53.489626 0 0 1 38.080413-15.769312c14.37393 0 27.892627 5.59653 38.065408 15.769312a53.879733 53.879733 0 0 1 0 76.145821zM934.776566 856.194116c-19.850428 0-38.410503 7.186965-53.459618 19.775407L610.913009 605.565584l-10.6079 10.607901 270.403938 270.403939c-12.588442 15.049115-19.775407 33.624194-19.775407 53.474621 0 22.401125 8.717384 43.451881 24.561716 59.296214s36.895089 24.561716 59.28121 24.561716c22.401125 0 43.451881-8.717384 59.296214-24.561716s24.561716-36.895089 24.561716-59.296214c0-22.401125-8.717384-43.451881-24.561716-59.296213s-36.880084-24.561716-59.296214-24.561716z m38.080413 121.923338c-20.315555 20.330559-55.785254 20.345563-76.145822 0a53.909741 53.909741 0 0 1 0-76.145821 53.474622 53.474622 0 0 1 38.065409-15.769312c14.388934 0 27.907631 5.59653 38.080413 15.769312a53.879733 53.879733 0 0 1 0 76.145821z" p-id="3090" fill="#c0cbda"></path></svg>