<svg t="1679150468025" class="icon" viewBox="0 0 1024 1024" version="1.1" xmlns="http://www.w3.org/2000/svg" p-id="11976" width="128" height="128"><path d="M146.432 945.664c-37.376 0-68.096-30.72-68.096-68.096V146.432c0-37.376 30.72-68.096 68.096-68.096h731.648c37.376 0 68.096 30.72 68.096 68.096v378.368c-18.432-19.456-39.936-35.84-62.976-49.664V182.784c0-23.04-18.944-41.472-41.472-41.472H182.784c-23.04 0-41.472 18.944-41.472 41.472v658.432c0 23.04 18.944 41.472 41.472 41.472h292.352c13.824 23.04 30.208 44.032 49.664 62.976H146.432z" fill="#c0cbda" p-id="11977"></path><path d="M924.16 879.616l-80.384-80.384 7.168 0.512-7.68-6.656c39.424-59.392 39.424-136.704 0-196.096-32.768-50.176-88.576-79.872-148.48-79.872-34.816 0-68.608 10.24-97.792 29.696-81.92 54.272-104.448 164.352-50.176 246.272 32.768 50.176 88.576 79.872 148.48 79.872 34.816 0 68.608-10.24 97.792-29.696l3.584-2.56 82.944 82.944c6.144 5.632 13.824 8.704 22.016 8.704s15.872-3.072 22.016-8.704c11.776-11.776 12.288-31.744 0.512-44.032z m-229.376-70.144c-63.488 0-114.688-51.712-114.688-114.688 0-63.488 51.712-114.688 114.688-114.688 63.488 0 114.688 51.712 114.688 114.688 0 63.488-51.2 114.688-114.688 114.688z" fill="#c0cbda" p-id="11978"></path><path d="M286.72 608.256c-4.608 0-9.216-1.024-13.824-3.584-0.512 0-1.024-0.512-1.536-1.024-14.848-8.704-19.968-28.672-11.264-44.032L399.36 304.128l183.808 113.152 90.624-167.936c5.12-9.728 15.36-15.872 26.112-15.872 4.608 0 9.216 1.024 13.824 3.584 0.512 0.512 1.024 0.512 1.536 1.024 14.848 8.704 19.968 28.672 11.264 44.032l-91.136 167.936c-23.552 8.192-46.08 18.944-67.072 32.768L421.888 391.68l-108.544 200.192c-5.12 10.24-15.36 16.384-26.624 16.384z" fill="#c0cbda" p-id="11979"></path></svg>